<svg width="28" height="27" viewBox="0 0 28 27" fill="none" xmlns="http://www.w3.org/2000/svg">
<path d="M3.16931 13.4638C3.17062 18.9823 7.18354 23.6811 12.6339 24.546V16.7058H9.7879V13.4638H12.6373V10.9958C12.5099 9.82642 12.9093 8.66093 13.7272 7.81548C14.5452 6.97003 15.6968 6.53224 16.8698 6.62084C17.7117 6.63444 18.5516 6.70943 19.3826 6.8452V9.6037H17.9647C17.4765 9.53976 16.9857 9.70098 16.6306 10.0419C16.2754 10.3829 16.0944 10.8667 16.1384 11.3571V13.4638H19.2469L18.7499 16.7069H16.1384V24.546C22.0328 23.6145 26.1662 18.2312 25.5441 12.2961C24.9219 6.361 19.7621 1.95185 13.8026 2.26287C7.84311 2.57389 3.17026 7.49619 3.16931 13.4638Z" fill="white"/>
</svg>
