<svg width="21" height="21" viewBox="0 0 21 21" fill="none" xmlns="http://www.w3.org/2000/svg">
<path d="M10.3097 20.6036C7.5501 20.6036 7.22478 20.589 6.14786 20.5419C5.30805 20.5143 4.47911 20.3436 3.69673 20.0371C2.34308 19.5103 1.27269 18.4395 0.746414 17.0857C0.451726 16.3005 0.292781 15.4708 0.276383 14.6323C0.213562 13.5576 0.213562 13.2054 0.213562 10.4671C0.213562 7.69962 0.228145 7.37654 0.276383 6.30523C0.293139 5.46783 0.452079 4.63937 0.746414 3.85523C1.27212 2.49957 2.34424 1.42786 3.7001 0.902662C4.48383 0.606736 5.31251 0.447376 6.1501 0.431509C7.22141 0.370932 7.57366 0.370932 10.3097 0.370932C13.0918 0.370932 13.4115 0.385515 14.4716 0.431509C15.3113 0.447513 16.1422 0.606856 16.9283 0.902662C18.2838 1.42845 19.3557 2.49996 19.882 3.85523C20.1816 4.6508 20.3414 5.49221 20.3543 6.34225C20.4171 7.41693 20.4171 7.76805 20.4171 10.5052C20.4171 13.2424 20.4014 13.6014 20.3543 14.6637C20.3376 15.503 20.1782 16.3334 19.8831 17.1193C19.3555 18.4741 18.2835 19.5453 16.9283 20.0719C16.1433 20.366 15.3142 20.5249 14.4761 20.5419C13.4047 20.6036 13.0536 20.6036 10.3097 20.6036ZM10.2716 2.14673C7.52766 2.14673 7.24273 2.16019 6.17141 2.20843C5.53197 2.2169 4.89871 2.3349 4.29914 2.55731C3.41376 2.8961 2.71318 3.59384 2.37077 4.47782C2.14665 5.08393 2.02863 5.72411 2.0219 6.37029C1.96244 7.45731 1.96244 7.74225 1.96244 10.4671C1.96244 13.1594 1.97254 13.4858 2.0219 14.5661C2.03194 15.2058 2.14989 15.8391 2.37077 16.4395C2.71368 17.3229 3.41415 18.0201 4.29914 18.3589C4.89831 18.5828 5.53182 18.7008 6.17141 18.7078C7.25731 18.7706 7.54337 18.7706 10.2716 18.7706C13.0233 18.7706 13.3083 18.7572 14.3706 18.7078C15.0105 18.7 15.6442 18.582 16.244 18.3589C17.124 18.0172 17.82 17.3216 18.1623 16.4418C18.386 15.8352 18.504 15.1947 18.5112 14.5482H18.5235C18.5717 13.4757 18.5717 13.1897 18.5717 10.4491C18.5717 7.70859 18.5594 7.42029 18.5112 6.34898C18.5011 5.71006 18.3831 5.07744 18.1623 4.47782C17.8208 3.59673 17.1247 2.89979 16.244 2.55731C15.6444 2.33378 15.0105 2.21575 14.3706 2.20843C13.2858 2.14673 13.002 2.14673 10.2716 2.14673ZM10.3097 15.6487C8.21195 15.65 6.31996 14.3875 5.51613 12.4498C4.7123 10.5122 5.15496 8.28108 6.63767 6.79709C8.12037 5.3131 10.3511 4.86851 12.2894 5.67066C14.2278 6.47282 15.492 8.36371 15.4924 10.4615C15.4893 13.3232 13.1715 15.6431 10.3097 15.6487ZM10.3097 7.09385C8.45106 7.09385 6.94433 8.60058 6.94433 10.4592C6.94433 12.3179 8.45106 13.8246 10.3097 13.8246C12.1684 13.8246 13.6751 12.3179 13.6751 10.4592C13.6708 8.60237 12.1666 7.09817 10.3097 7.09385ZM15.6943 6.29401C15.0273 6.29153 14.4883 5.74948 14.4895 5.08248C14.4908 4.41548 15.0318 3.87543 15.6988 3.87543C16.3658 3.87543 16.9069 4.41547 16.9081 5.08247C16.9084 5.40427 16.7806 5.71294 16.5528 5.94028C16.325 6.16762 16.0161 6.2949 15.6943 6.29401Z" fill="white"/>
</svg>
