<svg width="21" height="21" viewBox="0 0 21 21" fill="none" xmlns="http://www.w3.org/2000/svg">
<path d="M11.5833 20.5577H7.09613V7.09615H11.5833V9.33974C12.5398 8.12288 13.9903 7.39744 15.5376 7.36202C18.3203 7.37747 20.5657 9.64193 20.5577 12.4247V20.5577H16.0705V12.9856C15.891 11.7321 14.8161 10.8021 13.5498 10.8048C12.996 10.8223 12.4732 11.0648 12.1021 11.4763C11.731 11.8879 11.5436 12.4329 11.5833 12.9856V20.5577ZM4.85254 20.5577H0.365356V7.09615H4.85254V20.5577ZM2.60895 4.85256C1.36985 4.85256 0.365356 3.84808 0.365356 2.60897C0.365356 1.36987 1.36985 0.365385 2.60895 0.365385C3.84805 0.365385 4.85254 1.36987 4.85254 2.60897C4.85254 3.20401 4.61616 3.77468 4.1954 4.19543C3.77465 4.61619 3.20398 4.85256 2.60895 4.85256Z" fill="white"/>
</svg>
