<svg width="58" height="58" viewBox="0 0 58 58" fill="none" xmlns="http://www.w3.org/2000/svg">
<g filter="url(#filter0_d)">
<path d="M29 50C25.6572 50.0064 22.3475 49.3381 19.269 48.0354C17.7823 47.4059 16.3601 46.6341 15.0221 45.7306C13.6945 44.8332 12.4556 43.8109 11.3224 42.6779C10.1894 41.5445 9.16726 40.3056 8.26958 38.9779C7.3663 37.6399 6.59416 36.2178 5.96446 34.7314C4.66167 31.6528 3.99361 28.3429 4.00005 25C3.99361 21.6571 4.66167 18.3472 5.96446 15.2686C6.59398 13.7822 7.36613 12.3602 8.26958 11.0224C9.16726 9.69481 10.1894 8.45586 11.3224 7.32243C12.4556 6.18943 13.6945 5.16719 15.0221 4.26977C16.3601 3.36627 17.7823 2.59448 19.269 1.96501C22.3474 0.662093 25.6572 -0.00626156 29 4.47148e-05C32.3429 -0.00629675 35.6527 0.661935 38.7313 1.96464C40.2181 2.59412 41.6403 3.36591 42.9783 4.2694C44.3059 5.16699 45.5448 6.18921 46.6783 7.32206C47.8113 8.45553 48.8334 9.69448 49.7311 11.0221C50.6349 12.3597 51.407 13.7817 52.0363 15.2683C53.339 18.347 54.0069 21.657 53.9999 25C54.0065 28.3429 53.3383 31.6528 52.0352 34.7314C51.4058 36.218 50.6336 37.6401 49.73 38.9779C48.8323 40.3055 47.8101 41.5444 46.6772 42.6779C45.5437 43.8108 44.3048 44.833 42.9772 45.7306C41.6392 46.6341 40.217 47.4059 38.7303 48.0354C35.652 49.3379 32.3425 50.0061 29 50ZM29 2.61198C26.0065 2.60618 23.0428 3.20451 20.286 4.37125C18.9549 4.93503 17.6814 5.62652 16.4836 6.43587C15.2947 7.23966 14.1852 8.15519 13.1702 9.16988C12.1557 10.1849 11.2403 11.2943 10.4366 12.4833C9.62737 13.6813 8.93599 14.9549 8.37234 16.2862C7.20518 19.0428 6.60649 22.0065 6.61198 25C6.60607 27.9938 7.2044 30.9579 8.37125 33.7149C8.9349 35.0462 9.62627 36.3198 10.4355 37.5178C11.2392 38.7067 12.1546 39.8164 13.1691 40.8314C14.1841 41.846 15.2936 42.7612 16.4825 43.5649C17.6803 44.3741 18.9535 45.0654 20.2846 45.6291C23.0418 46.7957 26.0062 47.3939 29 47.388C31.9936 47.3938 34.9578 46.7955 37.7147 45.6288C39.0459 45.0651 40.3192 44.3738 41.5171 43.5645C42.7062 42.761 43.8156 41.8456 44.8305 40.8309C45.8452 39.8159 46.7607 38.7064 47.5645 37.5175C48.3737 36.3194 49.0651 35.0459 49.6287 33.7145C50.7956 30.9577 51.3939 27.9936 51.388 25C51.3939 22.0065 50.7956 19.0426 49.6287 16.2858C49.0651 14.9545 48.3737 13.6809 47.5645 12.4829C46.7607 11.2939 45.8452 10.1844 44.8305 9.16951C43.8156 8.1547 42.7062 7.23916 41.5171 6.43551C40.3192 5.62613 39.0459 4.93464 37.7147 4.37088C34.9578 3.20426 31.9936 2.60605 29 2.61198Z" fill="white"/>
<path d="M22.7734 38.4585C21.8524 38.4574 20.9695 38.091 20.3183 37.4398C19.6671 36.7885 19.3007 35.9056 19.2995 34.9847V15.1575C19.3007 14.2365 19.6671 13.3536 20.3183 12.7024C20.9695 12.0512 21.8524 11.6848 22.7734 11.6836H31.3084C33.1988 11.6853 35.0112 12.4368 36.348 13.7733C37.6848 15.1098 38.4369 16.922 38.439 18.8123C38.4378 20.0331 38.148 21.2363 37.5933 22.3238C37.0386 23.4113 36.2347 24.3524 35.2472 25.0701C36.2348 25.7883 37.0386 26.7297 37.5933 27.8175C38.148 28.9053 38.4377 30.1088 38.439 31.3298C38.4369 33.2201 37.6848 35.0324 36.348 36.3688C35.0112 37.7053 33.1988 38.4569 31.3084 38.4585H22.7734Z" fill="white"/>
<path d="M31.374 36.6351H22.839C22.6221 36.6352 22.4073 36.5925 22.2069 36.5095C22.0065 36.4265 21.8245 36.3049 21.6711 36.1515C21.5177 35.9981 21.3961 35.8161 21.3131 35.6157C21.2301 35.4153 21.1875 35.2005 21.1875 34.9836V19.1221L33.6781 26.1833C34.59 26.6979 35.3486 27.4455 35.8765 28.3497C36.4043 29.2539 36.6824 30.2821 36.6822 31.3291C36.6819 32.7366 36.1224 34.0863 35.1269 35.0814C34.1315 36.0764 32.7815 36.6353 31.374 36.6351Z" fill="#079893"/>
<path opacity="0.54" d="M31.7099 25.0701L21.1875 19.123V31.0171L31.7099 25.0701Z" fill="white"/>
</g>
<defs>
<filter id="filter0_d" x="0" y="0" width="58" height="58" filterUnits="userSpaceOnUse" color-interpolation-filters="sRGB">
<feFlood flood-opacity="0" result="BackgroundImageFix"/>
<feColorMatrix in="SourceAlpha" type="matrix" values="0 0 0 0 0 0 0 0 0 0 0 0 0 0 0 0 0 0 127 0" result="hardAlpha"/>
<feOffset dy="4"/>
<feGaussianBlur stdDeviation="2"/>
<feColorMatrix type="matrix" values="0 0 0 0 0 0 0 0 0 0 0 0 0 0 0 0 0 0 0.25 0"/>
<feBlend mode="normal" in2="BackgroundImageFix" result="effect1_dropShadow"/>
<feBlend mode="normal" in="SourceGraphic" in2="effect1_dropShadow" result="shape"/>
</filter>
</defs>
</svg>
