<svg width="103" height="32" fill="none" xmlns="http://www.w3.org/2000/svg"><path d="M31.182 15.591C31.182 6.981 24.202 0 15.592 0 6.98 0 0 6.98 0 15.591c0 8.61 6.98 15.591 15.591 15.591 8.61 0 15.591-6.98 15.591-15.59z" fill="#1E2C47"/><path d="M36.566 9.345h3.482c1.96 0 3.264.329 3.909.987.645.657.968 1.452.968 2.383 0 .62-.136 1.21-.41 1.768-.273.546-.707.956-1.303 1.229.882.223 1.527.614 1.936 1.173.422.558.633 1.216.633 1.973 0 .794-.124 1.49-.372 2.085-.248.596-.763 1.092-1.545 1.49-.782.396-1.911.595-3.388.595h-3.91V9.345zm3.817 5.808c.88 0 1.508-.21 1.88-.633.372-.434.559-.98.559-1.638 0-1.179-.845-1.768-2.532-1.768h-1.676v4.04h1.769zm.372 6.125c1.13 0 1.886-.223 2.271-.67.397-.46.596-1.036.596-1.731 0-.658-.223-1.167-.67-1.527-.447-.36-1.123-.54-2.03-.54h-2.308v4.468h2.141zm7.483-6.795h2.085v8.545h-2.085v-8.545zm1.024-1.6c-.385 0-.707-.131-.968-.392a1.315 1.315 0 0 1-.39-.968c0-.347.13-.645.39-.893a1.35 1.35 0 0 1 .968-.373c.373 0 .689.124.95.373.26.248.39.546.39.893 0 .385-.13.708-.39.968-.249.26-.565.391-.95.391zm4.59 3.238h-1.508v-1.638h1.508v-3.481l2.029-.447v3.928h1.973v1.638h-1.973v6.907h-2.03v-6.907z" fill="#079893"/><path d="M11.71 23.983a2.17 2.17 0 0 1-2.167-2.166V9.452a2.17 2.17 0 0 1 2.166-2.167h5.323a4.45 4.45 0 0 1 4.447 4.446 4.831 4.831 0 0 1-1.99 3.903 4.833 4.833 0 0 1 1.99 3.904 4.45 4.45 0 0 1-4.447 4.445H11.71z" fill="#fff"/><path d="M17.072 22.847h-5.323a1.03 1.03 0 0 1-1.03-1.03v-9.892l7.79 4.403a3.685 3.685 0 0 1 1.873 3.21 3.31 3.31 0 0 1-3.31 3.309z" fill="#079893"/><path opacity=".54" d="M17.281 15.634l-6.562-3.709v7.418l6.562-3.709z" fill="#fff"/><path d="M66.076 23.099c-1.414 0-2.643-.317-3.686-.95a6.353 6.353 0 0 1-2.364-2.532c-.546-1.067-.819-2.24-.819-3.518 0-1.353.292-2.563.875-3.63a6.345 6.345 0 0 1 2.495-2.495c1.067-.608 2.277-.912 3.63-.912.608 0 1.172.068 1.694.205.534.124.974.273 1.322.447.347.161.577.298.688.41L69 11.983c-.757-.67-1.744-1.004-2.96-1.004-.856 0-1.632.21-2.327.633-.695.421-1.24 1.023-1.638 1.805-.397.782-.596 1.688-.596 2.718 0 .944.174 1.8.521 2.57.36.769.882 1.377 1.564 1.824.683.447 1.496.67 2.439.67 1.092 0 2.147-.31 3.165-.93l.614 1.768c-.273.248-.776.49-1.508.726a7.37 7.37 0 0 1-2.197.335zm5.91-13.813h1.991v13.682h-1.992V9.286zm8.592 13.869c-.77 0-1.483-.18-2.14-.54a4.293 4.293 0 0 1-1.564-1.564c-.385-.683-.577-1.477-.577-2.383 0-.893.167-1.675.502-2.345a3.805 3.805 0 0 1 1.47-1.564c.634-.373 1.378-.559 2.235-.559.496 0 .962.087 1.396.26.434.175.8.392 1.098.652.298.249.497.497.596.745l.037-1.433h1.918v8.544H83.65l-.037-1.508c-.211.447-.596.845-1.154 1.192a3.583 3.583 0 0 1-1.88.503zm.335-1.676c.708 0 1.303-.242 1.788-.726.484-.496.726-1.142.726-1.936v-.13c0-.534-.112-1.012-.336-1.434a2.504 2.504 0 0 0-.912-.986 2.376 2.376 0 0 0-1.266-.354c-.794 0-1.408.26-1.843.782-.434.509-.651 1.173-.651 1.992 0 .831.21 1.508.633 2.029.434.509 1.055.763 1.861.763zm10.28 1.676a8.277 8.277 0 0 1-1.86-.224c-.634-.161-1.087-.347-1.36-.558l.67-1.583c.745.522 1.595.782 2.55.782.957 0 1.434-.279 1.434-.837a.66.66 0 0 0-.297-.578c-.2-.136-.553-.297-1.062-.484l-.707-.26c-.745-.298-1.334-.652-1.769-1.061-.434-.422-.651-.975-.651-1.657 0-.782.304-1.39.912-1.825.62-.446 1.446-.67 2.476-.67.509 0 1.005.056 1.49.168.496.111.874.254 1.135.428l-.726 1.6c-.162-.16-.422-.297-.782-.409a3.472 3.472 0 0 0-1.173-.186c-.881 0-1.322.267-1.322.8 0 .299.118.528.354.69.236.148.62.316 1.154.502.05.012.242.08.577.205.795.31 1.384.664 1.769 1.061.385.397.577.906.577 1.527 0 .844-.323 1.483-.968 1.917-.633.434-1.44.652-2.42.652zm8.418 0a8.277 8.277 0 0 1-1.861-.224c-.633-.161-1.086-.347-1.36-.558l.67-1.583c.745.522 1.596.782 2.551.782.956 0 1.434-.279 1.434-.837 0-.249-.1-.441-.298-.578-.199-.136-.553-.297-1.061-.484l-.708-.26c-.744-.298-1.334-.652-1.768-1.061-.435-.422-.652-.975-.652-1.657 0-.782.304-1.39.912-1.825.62-.446 1.446-.67 2.476-.67.509 0 1.006.056 1.49.168.496.111.875.254 1.135.428l-.726 1.6c-.161-.16-.422-.297-.782-.409a3.467 3.467 0 0 0-1.173-.186c-.88 0-1.321.267-1.321.8 0 .299.118.528.353.69.236.148.62.316 1.155.502.049.012.242.08.577.205.794.31 1.384.664 1.768 1.061.385.397.577.906.577 1.527 0 .844-.322 1.483-.968 1.917-.633.434-1.439.652-2.42.652z" fill="#1E2C47"/></svg>