<svg width="20" height="20" viewBox="0 0 20 20" fill="none" xmlns="http://www.w3.org/2000/svg">
<path d="M14.6002 19.5029H14.5722C10.7306 19.4083 7.0645 17.8744 4.30023 15.2049C1.62975 12.4431 0.09492 8.77846 0.000110774 4.93789C-0.00554647 4.39989 0.20569 3.88225 0.586226 3.50189L3.30023 0.789895C3.69073 0.399513 4.32373 0.399513 4.71423 0.789895L8.71423 4.7899C9.10461 5.1804 9.10461 5.8134 8.71423 6.2039L7.11823 7.7969C7.41424 8.90282 7.9595 9.92629 8.71223 10.7889C9.57327 11.5419 10.5954 12.0875 11.7002 12.3839L13.3002 10.7899C13.6907 10.3995 14.3237 10.3995 14.7142 10.7899L18.7142 14.7899C19.1046 15.1804 19.1046 15.8134 18.7142 16.2039L16.0002 18.9169C15.6302 19.2908 15.1263 19.5017 14.6002 19.5029ZM4.00523 2.91189H4.00023L2.00023 4.91589C2.08177 8.23455 3.40655 11.4016 5.71223 13.7899C8.10066 16.0948 11.2671 17.4194 14.5852 17.5019L16.5922 15.4969L14.0002 12.9119L12.7072 14.2039C12.5223 14.3909 12.2703 14.4964 12.0072 14.4969C11.937 14.4969 11.8669 14.4895 11.7982 14.4749C10.1319 14.1063 8.58461 13.3254 7.29823 12.2039C6.17668 10.9175 5.39584 9.37026 5.02723 7.7039C4.95769 7.37266 5.06042 7.02873 5.30023 6.7899L6.59223 5.49689L4.00523 2.91189Z" fill="white"/>
</svg>
