<svg width="28" height="27" viewBox="0 0 28 27" fill="none" xmlns="http://www.w3.org/2000/svg">
<path d="M23.1998 7.50255C24.2054 6.90137 24.9579 5.95474 25.3166 4.83941C24.3717 5.40009 23.3378 5.79504 22.2597 6.0072C20.765 4.42606 18.3969 4.04128 16.4785 5.06787C14.5601 6.09446 13.5664 8.27826 14.0527 10.399C10.1821 10.2047 6.57589 8.37634 4.13153 5.3689C2.85587 7.56921 3.50776 10.382 5.62128 11.7968C4.85701 11.7722 4.10969 11.5653 3.44163 11.1933C3.44163 11.2134 3.44163 11.2336 3.44163 11.2538C3.44207 13.5458 5.05743 15.5201 7.30397 15.9743C6.59507 16.1672 5.85148 16.1956 5.12993 16.0574C5.76172 18.0174 7.56821 19.3602 9.62721 19.4003C7.92189 20.7388 5.81588 21.4646 3.64804 21.461C3.26379 21.4616 2.87985 21.4395 2.4982 21.3949C4.6996 22.8095 7.26175 23.5603 9.87849 23.5577C13.519 23.5827 17.0176 22.1475 19.5918 19.5731C22.166 16.9987 23.6009 13.4999 23.5756 9.85944C23.5756 9.65079 23.5707 9.44326 23.561 9.23685C24.5038 8.55547 25.3175 7.71137 25.9639 6.74422C25.0856 7.13355 24.1539 7.38916 23.1998 7.50255Z" fill="white"/>
</svg>
